<svg width="172" height="81" viewBox="0 0 172 81" fill="none" xmlns="http://www.w3.org/2000/svg">
<path d="M1.86279 40.2891V0H17.807C20.859 0 23.4638 0.54427 25.6213 1.63281C27.7919 2.70823 29.4429 4.23613 30.5742 6.21648C31.7188 8.18372 32.291 10.4985 32.291 13.1608C32.291 15.8363 31.7121 18.138 30.5545 20.0659C29.3968 21.9807 27.7195 23.4495 25.5226 24.4725C23.3388 25.4954 20.6946 26.0069 17.59 26.0069H6.91443V19.1609H16.2087C17.8399 19.1609 19.1949 18.9379 20.2737 18.4921C21.3524 18.0462 22.1548 17.3773 22.6811 16.4855C23.2204 15.5936 23.4901 14.4854 23.4901 13.1608C23.4901 11.8231 23.2204 10.6952 22.6811 9.77715C22.1548 8.85913 21.3458 8.16402 20.2539 7.69188C19.1752 7.20665 17.8136 6.96403 16.1692 6.96403H10.4072V40.2891H1.86279ZM23.6874 21.9544L33.7315 40.2891H24.2992L14.4722 21.9544H23.6874ZM38.3293 40.2891V0H65.561V7.02302H46.8737V16.6231H64.1598V23.6462H46.8737V33.266H65.6393V40.2891H38.3293ZM79.6551 0L89.4231 30.6103H89.7975L99.585 0H109.057L95.1257 40.2891H84.1144L70.1637 0H79.6551Z" fill="#FFA526"/>
<path d="M7.31918 59.1098V80.5782H0.846148V59.1098H7.31918ZM4.06151 56.5792C2.8205 56.5792 1.83332 56.1996 1.09999 55.4404C0.366666 54.6812 0 53.7814 0 52.741C0 51.7006 0.35256 50.8008 1.05769 50.0416C1.79101 49.2824 2.79229 48.9028 4.06151 48.9028C5.30253 48.9028 6.28972 49.2824 7.02303 50.0416C7.75634 50.8008 8.12302 51.7006 8.12302 52.741C8.12302 53.7814 7.75634 54.6812 7.02303 55.4404C6.28972 56.1996 5.30253 56.5792 4.06151 56.5792ZM12.2493 80.5782V59.1098H18.6801L18.3839 63.7072C19.2583 62.1326 20.3724 60.9235 21.7262 60.0799C23.1083 59.2082 24.6454 58.7724 26.3377 58.7724C28.9044 58.7724 30.8223 59.6441 32.0915 61.3874C33.3607 63.1028 33.9813 65.5768 33.953 68.8107L33.8684 80.5782H27.3954L27.48 69.2746C27.5082 67.8123 27.2825 66.7018 26.8031 65.9426C26.3518 65.1551 25.6185 64.7616 24.6031 64.7616C23.7569 64.7616 22.9813 65.0147 22.2762 65.5208C21.571 65.9986 20.9506 66.8283 20.4147 68.0093C19.907 69.1903 19.498 70.8069 19.1877 72.8597C18.8775 74.9126 18.7083 77.4854 18.6801 80.5782H12.2493ZM49.1434 58.7724C52.4998 58.7724 55.1228 59.7284 57.0125 61.6405C58.9305 63.5523 59.8894 66.1396 59.8894 69.4012C59.8894 71.6227 59.41 73.6051 58.451 75.3482C57.4921 77.0913 56.1382 78.4694 54.3895 79.4816C52.6408 80.4939 50.5818 81 48.2126 81C44.8844 81 42.2614 80.0438 40.3434 78.1319C38.4537 76.2201 37.5088 73.6472 37.5088 70.4134C37.5088 68.1642 37.9883 66.1673 38.9473 64.4242C39.9063 62.6809 41.2601 61.3031 43.0088 60.2908C44.7575 59.2785 46.8024 58.7724 49.1434 58.7724ZM48.5087 75.3904C49.9472 75.3904 51.0895 74.8559 51.9356 73.7876C52.81 72.691 53.2472 71.2286 53.2472 69.4012C53.2472 67.8267 52.8664 66.6036 52.1049 65.7317C51.3433 64.8321 50.2998 64.382 48.9741 64.382C47.5075 64.382 46.337 64.9303 45.4626 66.027C44.6165 67.0952 44.1934 68.5438 44.1934 70.3712C44.1934 71.9457 44.5601 73.1833 45.2934 74.0829C46.0549 74.9548 47.1267 75.3904 48.5087 75.3904ZM78.21 59.1098H84.6407L76.7292 80.5782H67.5062L60.7369 59.1098H67.7601L72.4985 75.2638L78.21 59.1098ZM96.2866 81C93.889 81 91.8159 80.5644 90.0674 79.6925C88.3189 78.7929 86.9651 77.5414 86.0059 75.9387C85.0468 74.3076 84.5675 72.3819 84.5675 70.1604C84.5675 67.9111 85.0468 65.9287 86.0059 64.2133C86.9929 62.4981 88.3044 61.1625 89.9405 60.2064C91.6044 59.2504 93.4804 58.7724 95.5674 58.7724C97.9366 58.7724 99.8689 59.3067 101.364 60.3751C102.858 61.4436 103.888 62.9618 104.452 64.9303C105.044 66.8705 105.171 69.1342 104.833 71.7209H91.1674C91.3367 72.7892 91.9006 73.6894 92.8597 74.4203C93.8189 75.1235 95.1304 75.4747 96.7943 75.4747C97.5559 75.4747 98.3597 75.3199 99.2058 75.0108C100.052 74.6734 100.771 74.1811 101.364 73.5346L104.96 77.3306C104.029 78.4555 102.873 79.3551 101.49 80.0299C100.137 80.6764 98.402 81 96.2866 81ZM95.6943 63.4541C94.5659 63.4541 93.6074 63.7915 92.8174 64.4664C92.0559 65.1412 91.5482 66.083 91.2944 67.2923H99.3751C99.4035 65.9709 99.0789 65.0008 98.402 64.382C97.7535 63.7632 96.8505 63.4541 95.6943 63.4541Z" fill="#FFA526"/>
<path d="M156.845 59.1748H141.69C140.993 59.1748 140.427 59.7385 140.427 60.4338V61.6929C140.427 62.3882 140.993 62.9519 141.69 62.9519H156.845C157.543 62.9519 158.108 62.3882 158.108 61.6929V60.4338C158.108 59.7385 157.543 59.1748 156.845 59.1748Z" fill="#FFA526"/>
<path d="M154.319 64.2109H144.216C143.519 64.2109 142.953 64.7746 142.953 65.47V66.0995C142.953 66.7948 143.519 67.3585 144.216 67.3585H154.319C155.017 67.3585 155.582 66.7948 155.582 66.0995V65.47C155.582 64.7746 155.017 64.2109 154.319 64.2109Z" fill="#FFA526"/>
<path d="M152.117 68.6172H146.561C146.177 68.6172 145.866 69.1809 145.866 69.8762V70.5057C145.866 71.2011 146.177 71.7648 146.561 71.7648H152.117C152.501 71.7648 152.812 71.2011 152.812 70.5057V69.8762C152.812 69.1809 152.501 68.6172 152.117 68.6172Z" fill="#FFA526"/>
<path fill-rule="evenodd" clip-rule="evenodd" d="M168.028 36.7234C170.534 33.081 172 28.6722 172 23.9219C172 11.4056 161.822 1.25928 149.268 1.25928C136.713 1.25928 126.535 11.4056 126.535 23.9219C126.535 28.6861 128.01 33.107 130.529 36.7557C131.732 38.9311 132.851 40.7471 133.868 42.3978L133.869 42.3992C136.738 47.0563 138.797 50.3984 139.659 56.7897C139.746 57.4275 140.285 57.9158 140.93 57.9158H157.763C158.338 57.9158 158.84 57.5274 158.99 56.974C161.107 49.1562 163.078 45.617 167.125 38.3476L167.128 38.3422C167.417 37.8227 167.717 37.2841 168.028 36.7234ZM149.899 6.92493L132.85 23.9219L132.142 23.2159L149.191 6.21891L149.899 6.92493ZM132.85 32.7351L149.899 15.7382L149.191 15.0321L132.142 32.0291L132.85 32.7351ZM163.159 11.9611L146.11 28.958L145.402 28.252L162.451 11.255L163.159 11.9611ZM138.533 44.6959L155.582 27.699L154.874 26.993L137.825 43.9899L138.533 44.6959ZM170.105 23.2924L153.056 40.2893L152.348 39.5833L169.397 22.5863L170.105 23.2924ZM147.373 54.7682L164.422 37.7713L163.714 37.0652L146.665 54.0622L147.373 54.7682Z" fill="#FFA526"/>
</svg>
